<?xml version="1.0" encoding="utf-8"?>
<!-- Generator: Adobe Illustrator 23.0.5, SVG Export Plug-In . SVG Version: 6.00 Build 0)  -->
<svg version="1.1" id="_Слой_1" xmlns="http://www.w3.org/2000/svg" xmlns:xlink="http://www.w3.org/1999/xlink" x="0px"
	 y="0px" viewBox="0 0 400 400" style="enable-background:new 0 0 400 400;" xml:space="preserve">
<style type="text/css">
	.st0{fill:#6C1193;}
	.st1{fill:#FFE173;}
</style>
<g>
	
		<image style="overflow:visible;enable-background:new    ;" width="214" height="290" xlink:href="6D44CCEC.png"  transform="matrix(1.4346 0 0 1.3793 46 0)">
	</image>
	<path class="st0" d="M189.5,51l-39.6-8.3c-12.6-2.8-24.7,7.6-26.4,22.1c-2.9,12.4-5.2,24.8-8,37.2c4,0,6.9,1.4,8,4.8
		c1.1,2.8,0,6.2-0.6,7.6c-2.9,6.2-8.6,7.6-9.8,8.3c-2.9,17.9-6.3,36.6-8.6,55.2c-5.2,36.6-9.2,71.7-12.1,104.8
		c0,2.1-1.7,11.7,4,20.7c3.4,5.5,8.6,10.3,14.9,11l39.6,8.3c2.3-15.2,14.3-24.8,26.4-22.1c12.6,2.8,20.7,17.2,18.4,31.7l39.6,8.3
		c12.6,2.8,24.7-7.6,26.4-22.1c1.1-26.2,4-54.5,7.5-84.8c3.4-27.6,8-53.1,12.6-76.6c0,0-4-4.1-3.4-10.3c0-4.8,2.9-9.7,7.5-11
		c2.9-11.7,5.2-22.8,8-34.5c2.3-15.2-6.3-29.7-18.4-31.7l-39.6-8.3c-2.3,15.2-14.3,24.8-26.4,22.1c-12.6-2.8-20.7-17.2-18.4-31.7
		L189.5,51L189.5,51z M266.4,144.1c-0.6,5.5-5.2,9.7-9.8,8.3c-4.6-1.4-8-6.2-6.9-11.7c1.1-5.5,5.2-9.7,9.8-8.3
		C264.1,133.8,267.5,138.6,266.4,144.1z M238.2,138.6c-0.6,5.5-5.2,9.7-9.8,8.3c-4.6-1.4-8-6.2-6.9-11.7s5.2-9.7,9.8-8.3
		S239.4,133.1,238.2,138.6z M209.5,132.4c-0.6,5.5-5.2,9.7-9.8,8.3c-4.6-1.4-8-6.2-6.9-11.7c1.1-5.5,5.2-9.7,9.8-8.3
		C207.2,122.1,210.7,126.9,209.5,132.4z M181.4,126.2c-0.6,5.5-5.2,9.7-9.8,8.3c-4.6-1.4-8-6.2-6.9-11.7c1.1-5.5,5.2-9.7,9.8-8.3
		C179.1,115.9,182.6,120.7,181.4,126.2z M153.3,120.7c-0.6,5.5-5.2,9.7-9.8,8.3c-4.6-1.4-8-6.2-6.9-11.7c1.1-5.5,5.2-9.7,9.8-8.3
		S154.5,115.2,153.3,120.7z"/>
	<polygon class="st1" points="181.4,193.8 198.1,157.9 202.1,197.9 235.9,204.8 204.4,222.8 208.4,263.4 185.4,233.8 154.5,251.7 
		170.5,215.9 147.6,186.2 	"/>
</g>
</svg>
